<svg xmlns="http://www.w3.org/2000/svg" width="300" height="300" viewBox="0 0 300 300" fill="none">
  <!-- Fondo circular -->
  <circle cx="150" cy="150" r="120" fill="#F3EFE0" opacity="0.6"/>
  
  <!-- Dispositivo móvil -->
  <rect x="60" y="100" width="80" height="130" rx="8" fill="#F3EFE0" stroke="#222222" stroke-width="2"/>
  <rect x="65" y="110" width="70" height="100" rx="2" fill="#FFFFFF" stroke="#222222" stroke-width="1"/>
  <circle cx="100" cy="220" r="5" fill="#222222"/>
  
  <!-- Documento/Calendario -->
  <rect x="120" y="80" width="70" height="90" rx="4" fill="#FFFFFF" stroke="#222222" stroke-width="2"/>
  <rect x="130" y="90" width="50" height="5" rx="1" fill="#22A39F"/>
  <rect x="130" y="100" width="50" height="5" rx="1" fill="#22A39F"/>
  <rect x="130" y="110" width="30" height="5" rx="1" fill="#22A39F"/>
  <rect x="130" y="125" width="50" height="35" rx="2" fill="#22A39F" opacity="0.2"/>
  
  <!-- Laptop/Computadora -->
  <rect x="160" y="130" width="90" height="60" rx="4" fill="#FFFFFF" stroke="#222222" stroke-width="2"/>
  <rect x="150" y="190" width="110" height="10" rx="2" fill="#222222"/>
  <rect x="170" y="140" width="70" height="40" rx="2" fill="#22A39F" opacity="0.2"/>
  <rect x="175" y="145" width="40" height="5" rx="1" fill="#22A39F"/>
  <rect x="175" y="155" width="60" height="5" rx="1" fill="#22A39F"/>
  <rect x="175" y="165" width="30" height="5" rx="1" fill="#22A39F"/>
  
  <!-- Persona sentada -->
  <circle cx="150" cy="170" r="15" fill="#22A39F"/>
  <path d="M135 200C135 190 140 185 150 185C160 185 165 190 165 200" stroke="#22A39F" stroke-width="4"/>
  <path d="M135 200L130 220" stroke="#22A39F" stroke-width="3"/>
  <path d="M165 200L170 220" stroke="#22A39F" stroke-width="3"/>
  <path d="M140 170L145 165" stroke="#F3EFE0" stroke-width="1.5"/>
  <path d="M160 170L155 165" stroke="#F3EFE0" stroke-width="1.5"/>
  <path d="M145 180C145 180 150 183 155 180" stroke="#F3EFE0" stroke-width="1.5"/>
</svg>